HIERARCHY
ROOT pelvis
{
  OFFSET 0 100 0
  CHANNELS 6 Xposition Yposition Zposition Zrotation Xrotation Yrotation
  JOINT pelvis_right_femur
  {
    OFFSET -10.78128 -3.44521 -0.5502486
    CHANNELS 3 Zrotation Xrotation Yrotation
    JOINT right_femur_tibia
    {
      OFFSET -0.8047443 -44.0398 -0.1307829
      CHANNELS 3 Zrotation Xrotation Yrotation
      JOINT right_tibia_foot
      {
        OFFSET 3.006224 -47.83518 -5
        CHANNELS 3 Zrotation Xrotation Yrotation
        End Site
        {
          OFFSET 0 -5 15
        }
      }
    }
  }
  JOINT pelvis_left_femur
  {
    OFFSET 10.78128 -3.44521 -0.5502486
    CHANNELS 3 Zrotation Xrotation Yrotation
    JOINT left_femur_tibia
    {
      OFFSET 0.8047443 -44.0398 -0.1307829
      CHANNELS 3 Zrotation Xrotation Yrotation
      JOINT left_tibia_foot
      {
        OFFSET -4.370144 -48.10324 -4.275266
        CHANNELS 3 Zrotation Xrotation Yrotation
        End Site
        {
          OFFSET 0 -5 15
        }
      }
    }
  }
  JOINT pelvis_spine1
  {
    OFFSET 0 6.468898 -3.129235
    CHANNELS 3 Zrotation Xrotation Yrotation
    JOINT spine1
    {
      OFFSET 0 23.15396 4.99043
      CHANNELS 3 Zrotation Xrotation Yrotation
      JOINT spine2
      {
        OFFSET 0 20.79997 -5.064912
        CHANNELS 3 Zrotation Xrotation Yrotation
        JOINT neck
        {
          OFFSET 0 14.38658 9.616178
          CHANNELS 3 Zrotation Xrotation Yrotation
          End Site
          {
            OFFSET 0 20 0
          }
        }
      }
      JOINT right_manubrium
      {
        OFFSET -5.722621 16.35077 3.967754
        CHANNELS 3 Zrotation Xrotation Yrotation
        JOINT right_clavicle
        {
          OFFSET -13.16364 1.694482 -4.693211
          CHANNELS 3 Zrotation Xrotation Yrotation
          JOINT right_humerus
          {
            OFFSET -28.5034 -0.3100689 -2.792744
            CHANNELS 3 Zrotation Xrotation Yrotation
            JOINT right_radius
            {
              OFFSET -25.15693 0.02248979 -1.271978
              CHANNELS 3 Zrotation Xrotation Yrotation
              End Site
              {
                OFFSET -15 0 0
              }
            }
          }
        }
      }
      JOINT left_manubrium
      {
        OFFSET 5.722621 16.35077 3.967754
        CHANNELS 3 Zrotation Xrotation Yrotation
        JOINT left_clavicle
        {
          OFFSET 13.16364 1.694482 -4.693211
          CHANNELS 3 Zrotation Xrotation Yrotation
          JOINT left_humerus
          {
            OFFSET 29.39168 -1.063119 -2.237045
            CHANNELS 3 Zrotation Xrotation Yrotation
            JOINT left_radius
            {
              OFFSET 24.59957 -0.9528479 0.9047498
              CHANNELS 3 Zrotation Xrotation Yrotation
              End Site
              {
                OFFSET 15 -0 -0
              }
            }
          }
        }
      }
    }
  }
}
MOTION
Frames: 7
Frame Time: 0.0416666666667
0 103.5113 0 0.4900463 -0.5247527 0.2247583 3.337433 -18.84824 5.489274 -0 40.89065 -0 -11.8582 -7.988661 0.0631706 -7.788993 8.07214 -23.03375 -0 6.447447 -0 10.08224 -18.41806 26.63892 -3.736479 -2.385116 3.778321 2.273284 10.20183 -7.449566 0.5736508 22.87975 7.900077 4.763125 -26.41308 8.810671 6.36183 -20.44545 12.13277 86.27995 36.39019 -18.67269 -0 0 14.02587 -8.469114 5.611502 6.063321 5.959918 -20.94332 -2.554348 -95.71185 27.09637 23.90857 0 0 -14.28364 9.150603 19.09303 3.507633
0.4173073 104.8302 1.041146 0.56392 -0.8228779 0.4707959 3.184269 -18.21588 5.522369 -0 42.13128 -0 -11.63343 -7.643999 -0.06113478 -7.854352 7.834761 -22.87478 -0 7.179753 -0 9.914864 -18.15352 26.54736 -3.762327 -2.346636 3.804252 2.181154 10.27821 -7.374995 0.6001619 22.93321 7.871919 4.714489 -26.19166 8.79587 6.350297 -20.39314 12.13459 86.28519 36.22045 -18.51405 -0 0 14.03923 -8.753655 5.757727 6.158045 5.833091 -20.82032 -2.633964 -95.62804 27.03477 23.88504 0 0 -14.01474 8.966767 18.93616 3.725331
0.7264456 105.5963 2.259125 0.2444678 0.2424639 0.6242202 3.620096 -22.28603 4.321606 -0 33.54236 -0 -12.31638 -8.174718 0.4369624 -7.238492 9.902534 -22.42535 -0 3.398314 -0 9.884113 -19.87553 25.9351 -3.512923 -2.313415 3.426975 2.532156 9.878557 -7.715396 0.5424891 22.70435 7.938346 4.842557 -26.58144 8.745697 5.822508 -20.15662 11.94672 86.74602 35.83616 -19.53717 -0 0 13.14624 -8.588182 5.445625 6.061936 6.759424 -21.76264 -2.520785 -94.4528 26.48804 21.89104 0 0 -16.53797 10.40677 19.19522 1.809077
0.9372367 105.8247 3.880119 -0.06725726 1.196837 0.7352775 3.915655 -26.0404 2.971342 -0 25.12612 -0 -12.62411 -7.982557 0.8692922 -6.614704 11.8645 -21.46416 -0 0.6559882 -0 9.273064 -21.41326 24.69559 -3.188443 -2.291614 3.096437 2.797355 9.544617 -8.045276 0.5043856 22.38077 7.989968 4.929389 -26.77779 8.649862 5.169507 -19.81157 11.73318 87.31407 35.08771 -20.61163 -0 0 12.20282 -8.983648 5.480535 6.08667 7.619909 -22.70622 -2.509308 -93.02822 25.68982 19.73852 0 0 -19.25521 11.58237 19.11399 0.2162243
1.060635 105.6392 6.060697 -0.3618659 1.992075 0.8316631 4.183293 -29.1237 1.951138 -0 18.04459 -0 -12.29241 -7.454677 0.9205521 -6.034949 13.66506 -20.2299 0 -0.491833 0 7.909479 -22.60319 22.9234 -2.828599 -2.273794 2.847474 2.987183 9.209191 -8.363273 0.5222393 21.97082 7.995147 4.910278 -26.74806 8.565535 4.566477 -19.31093 11.48159 87.87512 34.2612 -21.66993 -0 0 11.42001 -9.624217 5.94163 6.114886 8.235144 -23.3855 -2.521936 -91.67408 25.15051 17.82289 0 0 -21.76395 11.79618 18.72477 -0.1852804
1.105208 105.1889 8.924243 -0.6400732 2.569569 0.9308116 4.454958 -31.45604 1.21097 -0 12.50515 -0 -11.60238 -6.497816 0.691328 -5.533679 15.31416 -18.82892 -0 0.2125965 -0 5.958635 -23.3002 20.75476 -2.435499 -2.244438 2.645052 3.101798 8.903861 -8.635732 0.5902056 21.54932 7.956475 4.826432 -26.54512 8.483271 4.028147 -18.64957 11.21359 88.46323 33.3767 -22.68014 -0 0 10.65528 -10.41599 6.656794 6.150893 8.610201 -23.82135 -2.568319 -90.42088 24.78383 16.11875 0 0 -23.85921 11.36697 18.13803 0.222628
1.079239 104.6545 12.54874 -0.9119041 2.930469 1.03977 4.796349 -32.95502 0.7902751 -0 8.659279 -0 -10.77066 -5.170533 0.2518342 -5.126119 16.74749 -17.39847 -0 2.956296 -0 3.594745 -23.37862 18.36273 -2.010779 -2.198969 2.480507 3.154922 8.642334 -8.843383 0.699395 21.16112 7.879385 4.712753 -26.25068 8.402616 3.603936 -17.85096 10.95327 89.06665 32.53822 -23.61276 -0 0 9.860309 -11.20806 7.491258 6.173269 8.737293 -24.01069 -2.628844 -89.37108 24.6068 14.72192 0 0 -25.35804 10.48055 17.43605 1.235614
